<svg width="1343" height="642" viewBox="0 0 1343 642" fill="none" xmlns="http://www.w3.org/2000/svg">
<g clip-path="url(#clip0_17_7)">
<rect width="1343" height="642" fill="#1B1F23"/>
<g opacity="0.16">
<path d="M1347.06 141C1287.66 152.01 1238.81 219.149 1167.93 230.435C1130.16 236.45 1099.89 224.743 1066.13 206.553C1032.36 188.363 1038.97 180.508 963.029 166.485C900.361 154.913 883.969 279.68 822.56 274.886C761.152 270.093 759.834 362.022 695 349.5C630.166 336.978 615.944 402.358 555 341C494.056 279.642 446.504 412.478 370 425C293.496 437.522 262.307 385.491 226 390.5C189.693 395.509 166.12 488.274 135 474.5C103.88 460.726 66.1307 601.5 3.8147e-05 601.5" stroke="#5BC300" stroke-width="5" stroke-linecap="round" stroke-linejoin="round"/>
<path d="M1374 -24C1314.6 -12.9898 1472.38 207.715 1401.5 219C1363.72 225.015 1435.27 329.69 1401.5 311.5C1367.73 293.31 1297.44 325.523 1221.5 311.5C1158.83 299.928 1090.91 335.294 1029.5 330.5C968.092 325.706 943.834 449.022 879 436.5C814.166 423.978 811.444 547.859 750.5 486.5C689.556 425.142 579.004 490.978 502.5 503.5C425.996 516.022 317.807 306.491 281.5 311.5C245.193 316.509 164.12 312.274 133 298.5C101.88 284.726 64.1307 425.5 -2 425.5" stroke="#0062FF" stroke-width="5" stroke-linecap="round" stroke-linejoin="round"/>
<line y1="-0.5" x2="1372.27" y2="-0.5" transform="matrix(1 -2.11973e-05 3.89875e-05 1 -12.532 601.501)" stroke="white" stroke-opacity="0.2"/>
<line y1="-0.5" x2="1372.27" y2="-0.5" transform="matrix(1 -2.11973e-05 3.89875e-05 1 -12.532 473.464)" stroke="white" stroke-opacity="0.2"/>
<line y1="-0.5" x2="1372.27" y2="-0.5" transform="matrix(1 -2.11973e-05 3.89875e-05 1 -5.29663 345.427)" stroke="white" stroke-opacity="0.2"/>
<line y1="-0.5" x2="1372.27" y2="-0.5" transform="matrix(1 -2.11973e-05 3.89875e-05 1 -5.29663 217.389)" stroke="white" stroke-opacity="0.2"/>
<line y1="-0.5" x2="1372.27" y2="-0.5" transform="matrix(1 -2.11973e-05 3.89875e-05 1 -5.29663 89.3519)" stroke="white" stroke-opacity="0.2"/>
<path d="M-8 181.5L22.0752 128.464C32.6228 109.864 49.8912 96.0078 70.3346 89.7405V89.7405C93.6139 82.6038 118.847 85.9615 139.45 98.9374L182.327 125.941C200.318 137.272 222.678 139.204 242.346 131.126V131.126C272.572 118.712 307.328 130.378 323.942 158.516L353.589 208.725C382.535 257.747 446.304 273.09 494.381 242.6V242.6C500.773 238.546 507.602 235.225 514.738 232.7L589.61 206.202C610.624 198.765 633.991 206.802 645.984 225.592L656.687 242.359C670.261 263.626 701.211 263.933 715.206 242.941V242.941C735.302 212.796 782.344 229.397 779.07 265.479L778.133 275.803C777.442 283.419 779.092 291.065 782.862 297.719L799.027 326.249C811.971 349.094 832.17 366.965 856.423 377.029V377.029C879.848 386.75 899.515 403.765 912.504 425.549L925.746 447.756C935.155 463.537 950.702 474.695 968.664 478.561L975.715 480.078C1001.41 485.608 1027.56 472.847 1039.01 449.187V449.187C1055.68 414.75 1101.27 406.561 1129.39 432.511V432.511C1134.71 437.424 1139.11 443.352 1142.25 449.879L1156.07 478.608C1171.92 511.552 1205.25 532.5 1241.8 532.5V532.5C1257.68 532.5 1273.31 536.474 1287.26 544.06L1351.5 579" stroke="#FF4A03" stroke-width="5" stroke-linecap="round"/>
</g>
</g>
<defs>
<clipPath id="clip0_17_7">
<rect width="1343" height="642" fill="white"/>
</clipPath>
</defs>
</svg>
