<svg width="1343" height="642" viewBox="0 0 1343 642" fill="none" xmlns="http://www.w3.org/2000/svg">
<g clip-path="url(#clip0_17_7)">
<rect width="1343" height="642" fill="#1B1F23"/>
<g opacity="0.16">
<path d="M-0.473267 393.412C58.9299 382.401 107.778 315.262 178.657 303.977C216.434 297.962 246.698 309.669 280.465 327.859C314.231 346.049 307.621 353.903 383.561 367.926C446.229 379.499 462.622 254.731 524.03 259.525C585.438 264.319 613.841 114.31 678.675 126.832C743.509 139.354 756.463 106.979 817.407 168.337C878.351 229.696 934.657 86.6732 1011.16 74.1511C1087.66 61.6289 1107.59 194.537 1143.9 189.528C1180.2 184.519 1212.89 279.225 1244.01 292.999C1275.13 306.773 1283.96 256.736 1350.09 256.736" stroke="#5BC300" stroke-width="5" stroke-linecap="round" stroke-linejoin="round"/>
<line y1="-0.5" x2="1372.27" y2="-0.5" transform="matrix(1 -2.11973e-05 3.89875e-05 1 -12.532 601.501)" stroke="white" stroke-opacity="0.2"/>
<line y1="-0.5" x2="1372.27" y2="-0.5" transform="matrix(1 -2.11973e-05 3.89875e-05 1 -12.532 473.464)" stroke="white" stroke-opacity="0.2"/>
<line y1="-0.5" x2="1372.27" y2="-0.5" transform="matrix(1 -2.11973e-05 3.89875e-05 1 -5.29663 345.427)" stroke="white" stroke-opacity="0.2"/>
<line y1="-0.5" x2="1372.27" y2="-0.5" transform="matrix(1 -2.11973e-05 3.89875e-05 1 -5.29663 217.389)" stroke="white" stroke-opacity="0.2"/>
<line y1="-0.5" x2="1372.27" y2="-0.5" transform="matrix(1 -2.11973e-05 3.89875e-05 1 -5.29663 89.3519)" stroke="white" stroke-opacity="0.2"/>
<path d="M-5.29663 431.401C73.3042 418.966 68.0641 492.839 171.555 503.616C275.046 514.394 303.867 438.951 351.027 417.395C398.187 395.84 419.148 297.616 497.748 304.248C576.349 310.881 615.65 377.336 681.15 385.626C746.651 393.917 759.751 448.899 821.322 489.523C882.892 530.146 939.223 535.12 1016.51 526.83C1093.8 518.539 1114.76 434.717 1151.45 431.401C1188.13 428.085 1220.88 468.057 1252.32 477.176C1283.76 486.296 1292.93 526.83 1359.74 526.83" stroke="#219EBC" stroke-width="5" stroke-linecap="round" stroke-linejoin="round"/>
<path d="M-5.29663 461.745H90.4004C101.607 461.745 112.788 462.808 123.795 464.918L169.513 473.683C203.738 480.244 231.825 504.638 243.114 537.607L254.571 571.069C277.197 637.147 367.183 645.67 401.812 585.015V585.015V585.015C432.981 527.261 501.938 501.3 563.457 524.159L585.704 532.426L611.526 544.6C652.532 563.934 701.514 548.694 724.313 509.508V509.508C726.807 505.222 728.931 500.732 730.663 496.086L777.071 371.588L791.005 322.68C819.863 221.391 956.984 205.978 1007.61 298.334V298.334L1051.17 371.588V371.588C1074.27 414.6 1114.74 445.716 1162.23 457.055V457.055C1175.26 460.167 1188.64 461.745 1202.04 461.745H1261.74H1352.5" stroke="#FF4A03" stroke-width="5" stroke-linecap="round"/>
</g>
</g>
<defs>
<clipPath id="clip0_17_7">
<rect width="1343" height="642" fill="white"/>
</clipPath>
</defs>
</svg>
