<svg width="313" height="313" viewBox="0 0 313 313" fill="none" xmlns="http://www.w3.org/2000/svg">
<path d="M277.939 255.216C258.759 278.81 233.122 296.306 204.16 305.566C175.198 314.826 144.166 315.449 114.856 307.358C85.5458 299.267 59.2275 282.813 39.1173 260.006C19.0072 237.2 5.97613 209.03 1.61678 178.937C-2.74257 148.845 1.75858 118.135 14.5701 90.5594C27.3817 62.9839 47.9488 39.7378 73.7578 23.6618C99.5669 7.5859 129.5 -0.623496 159.899 0.0369183C190.298 0.697332 219.847 10.199 244.933 27.3806L214.261 72.1647C197.875 60.9424 178.576 54.7363 158.72 54.3049C138.865 53.8736 119.314 59.2356 102.456 69.7357C85.5989 80.2359 72.1654 95.4193 63.7974 113.43C55.4295 131.442 52.4895 151.5 55.3368 171.155C58.1842 190.81 66.6955 209.21 79.8306 224.106C92.9657 239.002 110.156 249.749 129.3 255.034C148.444 260.319 168.713 259.912 187.63 253.864C206.546 247.816 223.292 236.388 235.819 220.977L277.939 255.216Z" fill="white" fill-opacity="0.6"/>
<path d="M243.613 26.4866C261.77 38.6519 277.177 54.485 288.842 72.9664C300.507 91.4478 308.172 112.168 311.344 133.791C314.515 155.415 313.122 177.463 307.255 198.516C301.387 219.568 291.175 239.159 277.277 256.025L234.879 221.088C243.899 210.142 250.526 197.429 254.334 183.767C258.142 170.104 259.046 155.796 256.988 141.763C254.93 127.73 249.955 114.284 242.385 102.29C234.814 90.2962 224.816 80.0211 213.033 72.1263L243.613 26.4866Z" fill="white"/>
</svg>
