<svg width="176" height="38" viewBox="0 0 176 38" fill="none" xmlns="http://www.w3.org/2000/svg">
<path d="M176 36.4163H168.053V15.7859L160.186 36.4163H155.369L147.583 15.7859V36.4163H139.154V0.935181H149.108L157.778 25.0174L166.527 0.935181H176V36.4163Z" fill="#ECEFF4"/>
<path d="M118.203 1.41687H112.102L99.1777 37.781H106.724L108.891 31.8407H120.691L122.859 37.781H131.127L118.203 1.41687ZM110.978 25.9004L115.313 12.9763L119.648 25.9004H110.978Z" fill="#ECEFF4"/>
<path d="M92.1139 36.4163H68.4331V0.935181H92.1139V7.03601H75.9789V15.4648H89.9465V21.5656H75.9789V30.3155H92.1139V36.4163Z" fill="#ECEFF4"/>
<path d="M58.6397 7.03601H49.9701V36.4163H42.5047V7.03601H32.7915V0.935181H58.6397V7.03601Z" fill="#ECEFF4"/>
<path d="M26.0484 25.9807C26.0484 33.2857 19.6265 36.6572 13.1243 36.7374C6.70239 36.7374 2.36759 35.2122 0.200195 32.0013L4.53499 27.5862C6.70238 29.5128 8.86979 30.6366 13.1243 30.6366C17.3788 30.6366 19.5462 29.1114 19.5462 26.2215C19.5462 23.4922 17.3788 22.3684 15.2114 21.8868L10.8766 21.3248C4.45472 20.4418 1.16348 17.1506 1.16348 11.2906C1.16348 8.07962 2.20704 5.51087 4.37444 3.42374C6.54184 1.49717 9.75279 0.533875 12.9638 0.533875C18.3421 0.533875 21.5531 1.89854 24.764 4.62785L20.4292 9.04292C18.2618 7.43744 16.0944 6.55442 12.8835 6.55442C9.67253 6.79524 7.50513 7.91909 7.50513 11.0498C7.50513 13.5383 9.67253 14.7424 11.8399 14.9029L16.1747 15.5451C21.7136 16.2676 26.0484 19.9602 26.0484 25.9807Z" fill="#ECEFF4"/>
</svg>
