<svg width="94" height="95" viewBox="0 0 94 95" fill="none" xmlns="http://www.w3.org/2000/svg">
<path d="M46.6392 0C22.0753 0 1.92658 19.1052 0 43.4282L25.0455 53.8638C27.1326 52.4189 29.7014 51.5359 32.511 51.5359C32.7518 51.5359 32.9926 51.5359 33.2334 51.5359L44.3915 35.2403V34.9995C44.3915 25.206 52.3386 17.1786 62.0518 17.1786C71.7649 17.1786 79.7121 25.1258 79.7121 34.9995C79.7121 44.7929 71.7649 52.8203 62.0518 52.8203C61.8912 52.8203 61.811 52.8203 61.6504 52.8203L45.7562 64.2995C45.7562 64.5403 45.7562 64.7008 45.7562 64.9417C45.7562 72.3269 39.8159 78.2671 32.511 78.2671C26.089 78.2671 20.7107 73.6112 19.5066 67.5104L1.60548 60.0449C7.14438 79.8726 25.206 94.4022 46.6392 94.4022C72.4874 94.4022 93.4389 73.2901 93.4389 47.2011C93.3586 21.1121 72.4071 0 46.6392 0ZM29.3 71.6044L23.5203 69.1962C24.5638 71.3636 26.3299 73.1296 28.6578 74.0929C33.7151 76.18 39.5751 73.7718 41.6622 68.7145C42.7058 66.226 42.7058 63.4967 41.6622 61.0082C40.6186 58.5197 38.7723 56.5932 36.2838 55.5496C33.8756 54.506 31.2266 54.5863 28.9789 55.4693L34.9192 57.9578C38.6118 59.5633 40.3778 63.8178 38.8526 67.5907C37.3274 71.4438 33.0729 73.2099 29.3 71.6044ZM73.7718 34.9995C73.7718 28.4973 68.4737 23.1189 62.0518 23.1189C55.5496 23.1189 50.3318 28.417 50.3318 34.9995C50.3318 41.5017 55.6299 46.88 62.0518 46.88C68.554 46.88 73.7718 41.5819 73.7718 34.9995ZM53.2217 34.9995C53.2217 30.1027 57.1551 26.089 62.0518 26.089C66.9485 26.089 70.8819 30.1027 70.8819 34.9995C70.8819 39.8962 66.9485 43.9099 62.0518 43.9099C57.1551 43.9099 53.2217 39.8962 53.2217 34.9995Z" fill="#ECEFF4"/>
</svg>
